{"glyphs":{"0":{"ha":650,"x_min":47,"x_max":603,"o":"m 533 625 l 533 625 l 603 625 l 603 555 l 603 486 l 603 416 l 603 347 l 603 278 l 603 208 l 603 139 l 603 69 l 533 69 l 533 0 l 464 0 l 395 0 l 325 0 l 256 0 l 186 0 l 117 0 l 117 69 l 47 69 l 47 139 l 47 208 l 47 278 l 47 347 l 47 416 l 47 486 l 47 555 l 47 625 l 117 625 l 117 694 l 186 694 l 256 694 l 325 694 l 395 694 l 464 694 l 533 694 l 533 625 m 464 486 l 464 486 l 464 555 l 395 555 l 325 555 l 256 555 l 186 555 l 186 486 l 186 416 l 186 347 l 186 278 l 186 208 l 186 139 l 256 139 l 325 139 l 395 139 l 464 139 l 464 208 l 464 278 l 464 347 l 464 416 l 464 486 z "},"1":{"ha":650,"x_min":47,"x_max":603,"o":"m 533 139 l 533 139 l 603 139 l 603 69 l 603 0 l 533 0 l 464 0 l 395 0 l 325 0 l 256 0 l 186 0 l 117 0 l 47 0 l 47 69 l 47 139 l 117 139 l 186 139 l 256 139 l 256 208 l 256 278 l 256 347 l 256 416 l 256 486 l 186 486 l 117 486 l 117 416 l 47 416 l 47 486 l 47 555 l 47 625 l 117 625 l 186 625 l 186 694 l 256 694 l 325 694 l 395 694 l 395 625 l 395 555 l 395 486 l 395 416 l 395 347 l 395 278 l 395 208 l 395 139 l 464 139 l 533 139 z "},"2":{"ha":650,"x_min":47,"x_max":602,"o":"m 533 625 l 533 625 l 602 625 l 602 555 l 602 486 l 602 416 l 533 416 l 533 347 l 464 347 l 464 278 l 394 278 l 325 278 l 325 208 l 256 208 l 256 139 l 325 139 l 394 139 l 464 139 l 533 139 l 602 139 l 602 69 l 602 0 l 533 0 l 464 0 l 394 0 l 325 0 l 256 0 l 186 0 l 117 0 l 47 0 l 47 69 l 47 139 l 47 208 l 117 208 l 117 278 l 186 278 l 186 347 l 256 347 l 325 347 l 325 416 l 394 416 l 394 486 l 464 486 l 464 555 l 394 555 l 325 555 l 256 555 l 186 555 l 186 486 l 117 486 l 47 486 l 47 555 l 47 625 l 117 625 l 117 694 l 186 694 l 256 694 l 325 694 l 394 694 l 464 694 l 533 694 l 533 625 z "},"3":{"ha":650,"x_min":47,"x_max":602,"o":"m 533 625 l 533 625 l 602 625 l 602 555 l 602 486 l 602 416 l 533 416 l 533 347 l 533 278 l 602 278 l 602 208 l 602 139 l 602 69 l 533 69 l 533 0 l 464 0 l 394 0 l 325 0 l 256 0 l 186 0 l 117 0 l 117 69 l 47 69 l 47 139 l 47 208 l 117 208 l 186 208 l 186 139 l 256 139 l 325 139 l 394 139 l 464 139 l 464 208 l 464 278 l 394 278 l 325 278 l 256 278 l 186 278 l 186 347 l 186 416 l 256 416 l 325 416 l 394 416 l 464 416 l 464 486 l 464 555 l 394 555 l 325 555 l 256 555 l 186 555 l 186 486 l 117 486 l 47 486 l 47 555 l 47 625 l 117 625 l 117 694 l 186 694 l 256 694 l 325 694 l 394 694 l 464 694 l 533 694 l 533 625 z "},"4":{"ha":650,"x_min":47,"x_max":603,"o":"m 534 694 l 534 694 l 603 694 l 603 625 l 603 555 l 603 486 l 603 416 l 603 347 l 603 278 l 603 208 l 603 139 l 603 69 l 603 0 l 534 0 l 465 0 l 465 69 l 465 139 l 465 208 l 395 208 l 326 208 l 256 208 l 186 208 l 117 208 l 47 208 l 47 278 l 47 347 l 47 416 l 117 416 l 117 486 l 186 486 l 186 555 l 256 555 l 256 625 l 326 625 l 326 694 l 395 694 l 465 694 l 534 694 m 465 486 l 465 486 l 465 555 l 395 555 l 395 486 l 326 486 l 326 416 l 256 416 l 256 347 l 326 347 l 395 347 l 465 347 l 465 416 l 465 486 z "},"5":{"ha":650,"x_min":47,"x_max":603,"o":"m 534 694 l 534 694 l 603 694 l 603 625 l 603 555 l 534 555 l 465 555 l 395 555 l 326 555 l 256 555 l 186 555 l 186 486 l 256 486 l 326 486 l 395 486 l 465 486 l 534 486 l 534 416 l 603 416 l 603 347 l 603 278 l 603 208 l 603 139 l 603 69 l 534 69 l 534 0 l 465 0 l 395 0 l 326 0 l 256 0 l 186 0 l 117 0 l 117 69 l 47 69 l 47 139 l 47 208 l 117 208 l 186 208 l 186 139 l 256 139 l 326 139 l 395 139 l 465 139 l 465 208 l 465 278 l 465 347 l 395 347 l 326 347 l 256 347 l 186 347 l 117 347 l 117 416 l 47 416 l 47 486 l 47 555 l 47 625 l 47 694 l 117 694 l 186 694 l 256 694 l 326 694 l 395 694 l 465 694 l 534 694 z "},"6":{"ha":650,"x_min":47,"x_max":603,"o":"m 534 625 l 534 625 l 603 625 l 603 555 l 603 486 l 534 486 l 464 486 l 464 555 l 395 555 l 326 555 l 256 555 l 186 555 l 186 486 l 186 416 l 256 416 l 326 416 l 395 416 l 464 416 l 534 416 l 534 347 l 603 347 l 603 277 l 603 208 l 603 139 l 603 69 l 534 69 l 534 0 l 464 0 l 395 0 l 326 0 l 256 0 l 186 0 l 117 0 l 117 69 l 47 69 l 47 139 l 47 208 l 47 277 l 47 347 l 47 416 l 47 486 l 47 555 l 47 625 l 117 625 l 117 694 l 186 694 l 256 694 l 326 694 l 395 694 l 464 694 l 534 694 l 534 625 m 464 208 l 464 208 l 464 277 l 395 277 l 326 277 l 256 277 l 186 277 l 186 208 l 186 139 l 256 139 l 326 139 l 395 139 l 464 139 l 464 208 z "},"7":{"ha":650,"x_min":47,"x_max":603,"o":"m 534 694 l 534 694 l 603 694 l 603 625 l 603 555 l 603 486 l 534 486 l 534 416 l 464 416 l 464 347 l 395 347 l 395 277 l 326 277 l 326 208 l 256 208 l 256 139 l 186 139 l 186 69 l 186 0 l 117 0 l 47 0 l 47 69 l 47 139 l 47 208 l 117 208 l 117 277 l 186 277 l 186 347 l 256 347 l 256 416 l 326 416 l 326 486 l 395 486 l 395 555 l 326 555 l 256 555 l 186 555 l 117 555 l 47 555 l 47 625 l 47 694 l 117 694 l 186 694 l 256 694 l 326 694 l 395 694 l 464 694 l 534 694 z "},"8":{"ha":650,"x_min":47,"x_max":603,"o":"m 534 625 l 534 625 l 603 625 l 603 555 l 603 486 l 603 416 l 534 416 l 534 347 l 603 347 l 603 277 l 603 208 l 603 139 l 603 69 l 534 69 l 534 0 l 464 0 l 395 0 l 325 0 l 256 0 l 186 0 l 117 0 l 117 69 l 47 69 l 47 139 l 47 208 l 47 277 l 47 347 l 117 347 l 117 416 l 47 416 l 47 486 l 47 555 l 47 625 l 117 625 l 117 694 l 186 694 l 256 694 l 325 694 l 395 694 l 464 694 l 534 694 l 534 625 m 464 486 l 464 486 l 464 555 l 395 555 l 325 555 l 256 555 l 186 555 l 186 486 l 256 486 l 325 486 l 395 486 l 464 486 m 464 277 l 464 277 l 464 347 l 395 347 l 325 347 l 256 347 l 186 347 l 186 277 l 186 208 l 186 139 l 256 139 l 325 139 l 395 139 l 464 139 l 464 208 l 464 277 z "},"9":{"ha":650,"x_min":47,"x_max":603,"o":"m 533 625 l 533 625 l 603 625 l 603 555 l 603 486 l 603 416 l 603 347 l 603 277 l 603 208 l 603 139 l 603 69 l 533 69 l 533 0 l 464 0 l 395 0 l 325 0 l 256 0 l 186 0 l 117 0 l 117 69 l 47 69 l 47 139 l 47 208 l 117 208 l 186 208 l 186 139 l 256 139 l 325 139 l 395 139 l 464 139 l 464 208 l 464 277 l 395 277 l 325 277 l 256 277 l 186 277 l 117 277 l 117 347 l 47 347 l 47 416 l 47 486 l 47 555 l 47 625 l 117 625 l 117 694 l 186 694 l 256 694 l 325 694 l 395 694 l 464 694 l 533 694 l 533 625 m 464 486 l 464 486 l 464 555 l 395 555 l 325 555 l 256 555 l 186 555 l 186 486 l 186 416 l 256 416 l 325 416 l 395 416 l 464 416 l 464 486 z "},"\u0000":{"ha":95,"x_min":0,"x_max":0,"o":""}," ":{"ha":232,"x_min":0,"x_max":0,"o":""},"!":{"ha":234,"x_min":47,"x_max":186,"o":"m 117 694 l 117 694 l 186 694 l 186 625 l 186 555 l 186 486 l 186 416 l 186 347 l 186 277 l 186 208 l 117 208 l 47 208 l 47 277 l 47 347 l 47 416 l 47 486 l 47 555 l 47 625 l 47 694 l 117 694 m 47 138 l 47 138 l 117 138 l 186 138 l 186 69 l 186 0 l 117 0 l 47 0 l 47 69 l 47 138 z "},"\"":{"ha":442,"x_min":47,"x_max":395,"o":"m 117 833 l 117 833 l 186 833 l 186 763 l 186 694 l 117 694 l 47 694 l 47 763 l 47 833 l 117 833 m 117 694 l 117 694 l 186 694 l 186 625 l 186 555 l 117 555 l 48 555 l 48 625 l 48 694 l 117 694 m 323 833 l 323 833 l 393 833 l 393 763 l 393 694 l 323 694 l 254 694 l 254 763 l 254 833 l 323 833 m 325 694 l 325 694 l 395 694 l 395 625 l 395 555 l 325 555 l 256 555 l 256 625 l 256 694 l 325 694 z "},"#":{"ha":650,"x_min":47,"x_max":603,"o":"m 533 555 l 533 555 l 603 555 l 603 486 l 603 416 l 533 416 l 533 347 l 533 277 l 603 277 l 603 208 l 603 138 l 533 138 l 533 69 l 533 0 l 464 0 l 464 69 l 464 138 l 395 138 l 325 138 l 256 138 l 186 138 l 186 69 l 186 0 l 117 0 l 117 69 l 117 138 l 47 138 l 47 208 l 47 277 l 117 277 l 117 347 l 117 416 l 47 416 l 47 486 l 47 555 l 117 555 l 117 625 l 117 694 l 186 694 l 186 625 l 186 555 l 256 555 l 325 555 l 395 555 l 464 555 l 464 625 l 464 694 l 533 694 l 533 625 l 533 555 m 464 347 l 464 347 l 464 416 l 395 416 l 325 416 l 256 416 l 186 416 l 186 347 l 186 277 l 256 277 l 325 277 l 395 277 l 464 277 l 464 347 z "},"$":{"ha":650,"x_min":47,"x_max":603,"o":"m 533 555 l 533 555 l 603 555 l 603 486 l 603 416 l 533 416 l 533 486 l 464 486 l 395 486 l 325 486 l 256 486 l 256 416 l 325 416 l 395 416 l 464 416 l 464 347 l 533 347 l 533 277 l 603 277 l 603 208 l 603 138 l 533 138 l 533 69 l 464 69 l 395 69 l 395 0 l 325 0 l 256 0 l 256 69 l 186 69 l 117 69 l 117 138 l 47 138 l 47 208 l 47 277 l 117 277 l 117 208 l 186 208 l 256 208 l 325 208 l 395 208 l 395 277 l 325 277 l 256 277 l 256 347 l 186 347 l 117 347 l 117 416 l 47 416 l 47 486 l 47 555 l 117 555 l 117 625 l 186 625 l 256 625 l 256 694 l 325 694 l 395 694 l 395 625 l 464 625 l 533 625 l 533 555 z "},"%":{"ha":650,"x_min":47,"x_max":602,"o":"m 533 694 l 533 694 l 602 694 l 602 625 l 602 555 l 602 486 l 533 486 l 533 416 l 464 416 l 464 347 l 394 347 l 394 277 l 325 277 l 325 208 l 256 208 l 256 138 l 186 138 l 186 69 l 117 69 l 117 0 l 47 0 l 47 69 l 47 138 l 47 208 l 117 208 l 117 277 l 186 277 l 186 347 l 256 347 l 256 416 l 325 416 l 325 486 l 394 486 l 394 555 l 464 555 l 464 625 l 533 625 l 533 694 m 394 208 l 394 208 l 464 208 l 533 208 l 533 138 l 533 69 l 464 69 l 394 69 l 394 138 l 394 208 m 256 486 l 256 486 l 186 486 l 117 486 l 117 555 l 117 625 l 186 625 l 256 625 l 256 555 l 256 486 z "},"&":{"ha":650,"x_min":47,"x_max":603,"o":"m 533 416 l 533 416 l 603 416 l 603 347 l 603 277 l 533 277 l 533 208 l 464 208 l 464 138 l 533 138 l 533 69 l 603 69 l 603 0 l 533 0 l 464 0 l 464 69 l 395 69 l 395 0 l 325 0 l 256 0 l 186 0 l 117 0 l 117 69 l 47 69 l 47 138 l 47 208 l 47 277 l 47 347 l 117 347 l 117 416 l 47 416 l 47 486 l 47 555 l 47 625 l 117 625 l 117 694 l 186 694 l 256 694 l 325 694 l 395 694 l 464 694 l 464 625 l 533 625 l 533 555 l 533 486 l 464 486 l 464 555 l 395 555 l 325 555 l 256 555 l 186 555 l 186 486 l 256 486 l 325 486 l 395 486 l 395 416 l 395 347 l 464 347 l 533 347 l 533 416 m 256 347 l 256 347 l 186 347 l 186 277 l 186 208 l 186 138 l 256 138 l 325 138 l 325 208 l 325 277 l 325 347 l 256 347 z "},"'":{"ha":234,"x_min":47,"x_max":186,"o":"m 117 833 l 117 833 l 186 833 l 186 763 l 186 694 l 117 694 l 47 694 l 47 763 l 47 833 l 117 833 m 117 833 l 117 833 l 186 833 l 186 763 l 186 694 l 117 694 l 47 694 l 47 763 l 47 833 l 117 833 m 117 694 l 117 694 l 186 694 l 186 625 l 186 555 l 117 555 l 48 555 l 48 625 l 48 694 l 117 694 m 117 694 l 117 694 l 186 694 l 186 625 l 186 555 l 117 555 l 48 555 l 48 625 l 48 694 l 117 694 z "},"(":{"ha":303,"x_min":47,"x_max":256,"o":"m 186 694 l 186 694 l 256 694 l 256 625 l 256 555 l 186 555 l 186 486 l 186 416 l 186 347 l 186 277 l 186 208 l 186 138 l 256 138 l 256 69 l 256 0 l 186 0 l 117 0 l 117 69 l 47 69 l 47 138 l 47 208 l 47 277 l 47 347 l 47 416 l 47 486 l 47 555 l 47 625 l 117 625 l 117 694 l 186 694 z "},")":{"ha":303,"x_min":47,"x_max":256,"o":"m 117 694 l 186 694 l 186 625 l 256 625 l 256 555 l 256 486 l 256 416 l 256 347 l 256 277 l 256 208 l 256 138 l 256 69 l 186 69 l 186 0 l 117 0 l 47 0 l 47 69 l 47 138 l 117 138 l 117 208 l 117 277 l 117 347 l 117 416 l 117 486 l 117 555 l 47 555 l 47 625 l 47 694 l 117 694 l 117 694 z "},"*":{"ha":581,"x_min":47,"x_max":534,"o":"m 534 69 l 534 69 l 464 69 l 464 138 l 534 138 l 534 69 m 534 486 l 534 486 l 534 416 l 464 416 l 464 486 l 534 486 m 464 138 l 464 138 l 395 138 l 395 208 l 464 208 l 464 138 m 395 347 l 395 347 l 326 347 l 326 277 l 395 277 l 395 208 l 326 208 l 256 208 l 186 208 l 186 277 l 256 277 l 256 347 l 186 347 l 117 347 l 117 416 l 186 416 l 256 416 l 256 486 l 256 555 l 326 555 l 326 486 l 326 416 l 395 416 l 464 416 l 464 347 l 395 347 m 117 138 l 117 138 l 117 208 l 186 208 l 186 138 l 117 138 m 47 69 l 47 69 l 47 138 l 117 138 l 117 69 l 47 69 m 47 486 l 47 486 l 117 486 l 117 416 l 47 416 l 47 486 z "},"+":{"ha":650,"x_min":47,"x_max":603,"o":"m 534 416 l 534 416 l 603 416 l 603 347 l 603 277 l 534 277 l 464 277 l 395 277 l 395 208 l 395 138 l 395 69 l 326 69 l 256 69 l 256 138 l 256 208 l 256 277 l 186 277 l 117 277 l 47 277 l 47 347 l 47 416 l 117 416 l 186 416 l 256 416 l 256 486 l 256 555 l 256 625 l 326 625 l 395 625 l 395 555 l 395 486 l 395 416 l 464 416 l 534 416 z "},",":{"ha":234,"x_min":47,"x_max":186,"o":"m 117 139 l 117 139 l 186 139 l 186 70 l 186 1 l 186 -69 l 117 -69 l 117 1 l 47 1 l 47 70 l 47 139 l 117 139 z "},"-":{"ha":650,"x_min":47,"x_max":603,"o":"m 534 416 l 534 416 l 603 416 l 603 347 l 603 277 l 534 277 l 464 277 l 395 277 l 326 277 l 256 277 l 186 277 l 117 277 l 47 277 l 47 347 l 47 416 l 117 416 l 186 416 l 256 416 l 326 416 l 395 416 l 464 416 l 534 416 z "},".":{"ha":234,"x_min":47,"x_max":186,"o":"m 47 138 l 47 138 l 117 138 l 186 138 l 186 69 l 186 0 l 117 0 l 47 0 l 47 69 l 47 138 z "},"/":{"ha":650,"x_min":47,"x_max":603,"o":"m 534 694 l 534 694 l 603 694 l 603 625 l 603 555 l 603 486 l 603 416 l 534 416 l 465 416 l 465 347 l 395 347 l 395 277 l 326 277 l 326 208 l 256 208 l 256 138 l 186 138 l 186 69 l 186 0 l 117 0 l 47 0 l 47 69 l 47 138 l 47 208 l 47 277 l 117 277 l 186 277 l 186 347 l 256 347 l 256 416 l 326 416 l 326 486 l 395 486 l 395 555 l 465 555 l 465 625 l 465 694 l 534 694 z "},":":{"ha":234,"x_min":47,"x_max":186,"o":"m 117 625 l 117 625 l 186 625 l 186 555 l 186 486 l 117 486 l 47 486 l 47 555 l 47 625 l 117 625 m 47 139 l 47 139 l 117 139 l 186 139 l 186 69 l 186 0 l 117 0 l 47 0 l 47 69 l 47 139 z "},";":{"ha":233,"x_min":47,"x_max":186,"o":"m 117 625 l 117 625 l 186 625 l 186 555 l 186 486 l 117 486 l 47 486 l 47 555 l 47 625 l 117 625 m 47 139 l 47 139 l 117 139 l 186 139 l 186 70 l 186 0 l 186 -69 l 117 -69 l 117 0 l 47 0 l 47 70 l 47 139 z "},"<":{"ha":650,"x_min":47,"x_max":602,"o":"m 533 694 l 533 694 l 602 694 l 602 625 l 602 555 l 533 555 l 464 555 l 464 486 l 394 486 l 325 486 l 325 416 l 256 416 l 186 416 l 186 347 l 186 277 l 256 277 l 325 277 l 325 208 l 394 208 l 464 208 l 464 138 l 533 138 l 602 138 l 602 69 l 602 0 l 533 0 l 533 69 l 464 69 l 394 69 l 394 138 l 325 138 l 256 138 l 256 208 l 186 208 l 117 208 l 117 277 l 47 277 l 47 347 l 47 416 l 117 416 l 117 486 l 186 486 l 256 486 l 256 555 l 325 555 l 394 555 l 394 625 l 464 625 l 533 625 l 533 694 z "},"=":{"ha":650,"x_min":47,"x_max":603,"o":"m 534 555 l 534 555 l 603 555 l 603 486 l 603 416 l 534 416 l 465 416 l 395 416 l 326 416 l 256 416 l 186 416 l 117 416 l 47 416 l 47 486 l 47 555 l 117 555 l 186 555 l 256 555 l 326 555 l 395 555 l 465 555 l 534 555 m 465 277 l 465 277 l 534 277 l 603 277 l 603 208 l 603 138 l 534 138 l 465 138 l 395 138 l 326 138 l 256 138 l 186 138 l 117 138 l 47 138 l 47 208 l 47 277 l 117 277 l 186 277 l 256 277 l 326 277 l 395 277 l 465 277 z "},">":{"ha":650,"x_min":47,"x_max":602,"o":"m 117 0 l 117 0 l 47 0 l 47 69 l 47 138 l 117 138 l 186 138 l 186 208 l 256 208 l 325 208 l 325 277 l 394 277 l 464 277 l 464 347 l 464 416 l 394 416 l 325 416 l 325 486 l 256 486 l 186 486 l 186 555 l 117 555 l 47 555 l 47 625 l 47 694 l 117 694 l 117 625 l 186 625 l 256 625 l 256 555 l 325 555 l 394 555 l 394 486 l 464 486 l 533 486 l 533 416 l 602 416 l 602 347 l 602 277 l 533 277 l 533 208 l 464 208 l 394 208 l 394 138 l 325 138 l 256 138 l 256 69 l 186 69 l 117 69 l 117 0 z "},"?":{"ha":650,"x_min":47,"x_max":602,"o":"m 533 625 l 533 625 l 602 625 l 602 555 l 602 486 l 602 416 l 533 416 l 533 347 l 464 347 l 464 277 l 394 277 l 325 277 l 325 208 l 256 208 l 186 208 l 186 277 l 186 347 l 256 347 l 325 347 l 325 416 l 394 416 l 394 486 l 464 486 l 464 555 l 394 555 l 325 555 l 256 555 l 186 555 l 186 486 l 117 486 l 47 486 l 47 555 l 47 625 l 117 625 l 117 694 l 186 694 l 256 694 l 325 694 l 394 694 l 464 694 l 533 694 l 533 625 m 186 138 l 186 138 l 256 138 l 325 138 l 325 69 l 325 0 l 256 0 l 186 0 l 186 69 l 186 138 z "},"@":{"ha":650,"x_min":47,"x_max":603,"o":"m 534 625 l 534 625 l 603 625 l 603 555 l 603 486 l 603 416 l 603 347 l 603 277 l 603 208 l 603 138 l 534 138 l 464 138 l 395 138 l 325 138 l 256 138 l 256 208 l 325 208 l 395 208 l 395 277 l 395 347 l 395 416 l 325 416 l 256 416 l 256 486 l 325 486 l 395 486 l 464 486 l 464 416 l 464 347 l 464 277 l 464 208 l 534 208 l 534 277 l 534 347 l 534 416 l 534 486 l 534 555 l 464 555 l 464 625 l 395 625 l 325 625 l 256 625 l 186 625 l 186 555 l 117 555 l 117 486 l 117 416 l 117 347 l 117 277 l 117 208 l 117 138 l 186 138 l 186 69 l 256 69 l 325 69 l 395 69 l 464 69 l 534 69 l 534 0 l 464 0 l 395 0 l 325 0 l 256 0 l 186 0 l 117 0 l 117 69 l 47 69 l 47 138 l 47 208 l 47 277 l 47 347 l 47 416 l 47 486 l 47 555 l 47 625 l 117 625 l 117 694 l 186 694 l 256 694 l 325 694 l 395 694 l 464 694 l 534 694 l 534 625 m 256 347 l 256 347 l 256 277 l 256 208 l 186 208 l 186 277 l 186 347 l 186 416 l 256 416 l 256 347 z "},"A":{"ha":650,"x_min":47,"x_max":603,"o":"m 534 555 l 534 555 l 603 555 l 603 485 l 603 416 l 603 347 l 603 277 l 603 208 l 603 138 l 603 68 l 603 -1 l 534 -1 l 465 -1 l 465 68 l 465 138 l 465 208 l 395 208 l 326 208 l 256 208 l 186 208 l 186 138 l 186 68 l 186 -1 l 117 -1 l 47 -1 l 47 68 l 47 138 l 47 208 l 47 277 l 47 347 l 47 416 l 47 485 l 47 555 l 117 555 l 117 624 l 186 624 l 186 694 l 256 694 l 326 694 l 395 694 l 465 694 l 465 624 l 534 624 l 534 555 m 465 416 l 465 416 l 465 486 l 395 486 l 395 555 l 326 555 l 256 555 l 256 486 l 187 486 l 187 416 l 187 347 l 256 347 l 326 347 l 395 347 l 465 347 l 465 416 z "},"B":{"ha":650,"x_min":47,"x_max":603,"o":"m 534 625 l 534 625 l 603 625 l 603 555 l 603 486 l 603 416 l 534 416 l 534 347 l 603 347 l 603 277 l 603 208 l 603 139 l 603 69 l 534 69 l 534 0 l 465 0 l 395 0 l 326 0 l 256 0 l 186 0 l 117 0 l 47 0 l 47 69 l 47 139 l 47 208 l 47 277 l 47 347 l 47 416 l 47 486 l 47 555 l 47 625 l 47 694 l 117 694 l 186 694 l 256 694 l 326 694 l 395 694 l 465 694 l 534 694 l 534 625 m 465 208 l 465 208 l 465 277 l 395 277 l 326 277 l 256 277 l 186 277 l 186 208 l 186 139 l 256 139 l 326 139 l 395 139 l 465 139 l 465 208 m 395 416 l 395 416 l 465 416 l 465 486 l 465 555 l 395 555 l 326 555 l 256 555 l 186 555 l 186 486 l 186 416 l 256 416 l 326 416 l 395 416 z "},"C":{"ha":650,"x_min":47,"x_max":603,"o":"m 534 625 l 534 625 l 603 625 l 603 555 l 603 486 l 534 486 l 464 486 l 464 555 l 395 555 l 326 555 l 256 555 l 186 555 l 186 486 l 186 416 l 186 347 l 186 277 l 186 208 l 186 139 l 256 139 l 326 139 l 395 139 l 464 139 l 464 208 l 534 208 l 603 208 l 603 139 l 603 69 l 534 69 l 534 0 l 464 0 l 395 0 l 326 0 l 256 0 l 186 0 l 117 0 l 117 69 l 47 69 l 47 139 l 47 208 l 47 277 l 47 347 l 47 416 l 47 486 l 47 555 l 47 625 l 117 625 l 117 694 l 186 694 l 256 694 l 326 694 l 395 694 l 464 694 l 534 694 l 534 625 z "},"D":{"ha":650,"x_min":47,"x_max":603,"o":"m 534 555 l 534 555 l 603 555 l 603 486 l 603 416 l 603 347 l 603 277 l 603 208 l 603 139 l 534 139 l 534 69 l 464 69 l 464 0 l 395 0 l 326 0 l 256 0 l 186 0 l 117 0 l 47 0 l 47 69 l 47 139 l 47 208 l 47 277 l 47 347 l 47 416 l 47 486 l 47 555 l 47 625 l 47 694 l 117 694 l 186 694 l 256 694 l 326 694 l 395 694 l 464 694 l 464 625 l 534 625 l 534 555 m 464 486 l 464 486 l 464 555 l 395 555 l 326 555 l 256 555 l 186 555 l 186 486 l 186 416 l 186 347 l 186 277 l 186 208 l 186 139 l 256 139 l 326 139 l 395 139 l 464 139 l 464 208 l 464 277 l 464 347 l 464 416 l 464 486 z "},"E":{"ha":650,"x_min":47,"x_max":603,"o":"m 534 694 l 534 694 l 603 694 l 603 625 l 603 555 l 534 555 l 464 555 l 395 555 l 325 555 l 256 555 l 186 555 l 186 486 l 186 416 l 256 416 l 325 416 l 395 416 l 464 416 l 534 416 l 534 347 l 464 347 l 464 277 l 395 277 l 325 277 l 256 277 l 186 277 l 186 208 l 186 139 l 256 139 l 325 139 l 395 139 l 464 139 l 534 139 l 603 139 l 603 69 l 603 0 l 534 0 l 464 0 l 395 0 l 325 0 l 256 0 l 186 0 l 117 0 l 47 0 l 47 69 l 47 139 l 47 208 l 47 277 l 47 347 l 47 416 l 47 486 l 47 555 l 47 625 l 47 694 l 117 694 l 186 694 l 256 694 l 325 694 l 395 694 l 464 694 l 534 694 z "},"F":{"ha":650,"x_min":47,"x_max":603,"o":"m 533 694 l 533 694 l 603 694 l 603 625 l 603 555 l 533 555 l 464 555 l 395 555 l 325 555 l 256 555 l 186 555 l 186 486 l 186 416 l 256 416 l 325 416 l 395 416 l 464 416 l 533 416 l 533 347 l 464 347 l 464 277 l 395 277 l 325 277 l 256 277 l 186 277 l 186 208 l 186 139 l 186 69 l 186 0 l 117 0 l 47 0 l 47 69 l 47 139 l 47 208 l 47 277 l 47 347 l 47 416 l 47 486 l 47 555 l 47 625 l 47 694 l 117 694 l 186 694 l 256 694 l 325 694 l 395 694 l 464 694 l 533 694 z "},"G":{"ha":650,"x_min":47,"x_max":603,"o":"m 533 625 l 533 625 l 603 625 l 603 555 l 603 486 l 533 486 l 464 486 l 464 555 l 395 555 l 325 555 l 256 555 l 186 555 l 186 486 l 186 416 l 186 347 l 186 277 l 186 208 l 186 139 l 256 139 l 325 139 l 395 139 l 464 139 l 464 208 l 464 277 l 395 277 l 325 277 l 256 277 l 256 347 l 256 416 l 325 416 l 395 416 l 464 416 l 533 416 l 533 347 l 603 347 l 603 277 l 603 208 l 603 139 l 603 69 l 533 69 l 533 0 l 464 0 l 395 0 l 325 0 l 256 0 l 186 0 l 117 0 l 117 69 l 47 69 l 47 139 l 47 208 l 47 277 l 47 347 l 47 416 l 47 486 l 47 555 l 47 625 l 117 625 l 117 694 l 186 694 l 256 694 l 325 694 l 395 694 l 464 694 l 533 694 l 533 625 z "},"H":{"ha":650,"x_min":47,"x_max":602,"o":"m 533 694 l 533 694 l 602 694 l 602 625 l 602 555 l 602 486 l 602 416 l 602 347 l 602 277 l 602 208 l 602 139 l 602 69 l 602 0 l 533 0 l 464 0 l 464 69 l 464 139 l 464 208 l 464 277 l 394 277 l 325 277 l 256 277 l 186 277 l 186 208 l 186 139 l 186 69 l 186 0 l 117 0 l 47 0 l 47 69 l 47 139 l 47 208 l 47 277 l 47 347 l 47 416 l 47 486 l 47 555 l 47 625 l 47 694 l 117 694 l 186 694 l 186 625 l 186 555 l 186 486 l 186 416 l 256 416 l 325 416 l 394 416 l 464 416 l 464 486 l 464 555 l 464 625 l 464 694 l 533 694 z "},"I":{"ha":650,"x_min":47,"x_max":603,"o":"m 534 694 l 534 694 l 534 612 l 534 555 l 464 555 l 395 555 l 395 486 l 395 416 l 395 347 l 395 277 l 395 208 l 395 139 l 464 139 l 534 139 l 534 0 l 464 0 l 395 0 l 326 0 l 256 0 l 186 0 l 117 0 l 117 139 l 186 139 l 256 139 l 256 208 l 256 277 l 256 347 l 256 416 l 256 486 l 256 555 l 186 555 l 117 555 l 117 694 l 186 694 l 256 694 l 326 694 l 395 694 l 464 694 l 534 694 m 534 694 l 534 694 l 603 694 l 603 625 l 603 555 l 534 555 l 464 555 l 395 555 l 326 555 l 256 555 l 186 555 l 117 555 l 47 555 l 47 625 l 47 694 l 117 694 l 186 694 l 256 694 l 326 694 l 395 694 l 464 694 l 534 694 m 534 138 l 534 138 l 603 138 l 603 69 l 603 0 l 534 0 l 464 0 l 395 0 l 326 0 l 256 0 l 186 0 l 117 0 l 47 0 l 47 69 l 47 138 l 117 138 l 186 138 l 256 138 l 326 138 l 395 138 l 464 138 l 534 138 z "},"J":{"ha":650,"x_min":47,"x_max":603,"o":"m 534 694 l 534 694 l 603 694 l 603 625 l 603 555 l 603 486 l 603 416 l 603 347 l 603 277 l 603 208 l 603 139 l 603 69 l 534 69 l 534 0 l 464 0 l 395 0 l 326 0 l 256 0 l 186 0 l 117 0 l 117 69 l 47 69 l 47 139 l 47 208 l 117 208 l 186 208 l 186 139 l 256 139 l 326 139 l 395 139 l 464 139 l 464 208 l 464 277 l 464 347 l 464 416 l 464 486 l 464 555 l 464 625 l 395 625 l 326 625 l 326 694 l 395 694 l 464 694 l 534 694 z "},"K":{"ha":650,"x_min":47,"x_max":603,"o":"m 325 416 l 325 416 l 325 347 l 325 277 l 395 277 l 395 208 l 464 208 l 464 138 l 533 138 l 533 68 l 603 68 l 603 -1 l 533 -1 l 464 -1 l 395 -1 l 395 68 l 325 68 l 325 138 l 256 138 l 256 208 l 186 208 l 186 138 l 186 68 l 186 -1 l 117 -1 l 47 -1 l 47 68 l 47 138 l 47 208 l 47 277 l 47 347 l 47 416 l 47 486 l 47 555 l 47 624 l 47 694 l 117 694 l 186 694 l 186 624 l 186 555 l 186 486 l 256 486 l 256 555 l 325 555 l 325 624 l 395 624 l 395 694 l 464 694 l 533 694 l 603 694 l 603 624 l 533 624 l 533 555 l 464 555 l 464 486 l 395 486 l 395 416 l 325 416 z "},"L":{"ha":650,"x_min":47,"x_max":603,"o":"m 533 208 l 533 208 l 603 208 l 603 138 l 603 68 l 603 -1 l 533 -1 l 464 -1 l 394 -1 l 325 -1 l 256 -1 l 186 -1 l 117 -1 l 47 -1 l 47 68 l 47 138 l 47 208 l 47 277 l 47 347 l 47 416 l 47 486 l 47 555 l 47 624 l 47 694 l 117 694 l 186 694 l 186 624 l 186 555 l 186 486 l 186 416 l 186 347 l 186 277 l 186 208 l 186 138 l 256 138 l 325 138 l 394 138 l 464 138 l 464 208 l 533 208 z "},"M":{"ha":650,"x_min":47,"x_max":602,"o":"m 533 694 l 533 694 l 602 694 l 602 624 l 602 555 l 602 486 l 602 416 l 602 347 l 602 277 l 602 208 l 602 138 l 602 68 l 602 -1 l 533 -1 l 464 -1 l 464 68 l 464 138 l 464 208 l 464 277 l 464 347 l 464 416 l 464 486 l 394 486 l 394 416 l 394 347 l 394 277 l 394 208 l 394 138 l 394 68 l 325 68 l 256 68 l 256 138 l 256 208 l 256 277 l 256 347 l 256 416 l 256 486 l 186 486 l 186 416 l 186 347 l 186 277 l 186 208 l 186 138 l 186 68 l 186 -1 l 117 -1 l 47 -1 l 47 68 l 47 138 l 47 208 l 47 277 l 47 347 l 47 416 l 47 486 l 47 555 l 47 624 l 47 694 l 117 694 l 186 694 l 186 624 l 256 624 l 256 555 l 325 555 l 394 555 l 394 624 l 464 624 l 464 694 l 533 694 z "},"N":{"ha":650,"x_min":47,"x_max":602,"o":"m 533 694 l 533 694 l 602 694 l 602 625 l 602 555 l 602 486 l 602 416 l 602 347 l 602 277 l 602 208 l 602 139 l 602 69 l 602 0 l 533 0 l 464 0 l 394 0 l 325 0 l 325 69 l 256 69 l 256 139 l 256 208 l 256 277 l 256 347 l 256 416 l 256 486 l 256 555 l 256 625 l 186 625 l 186 555 l 186 486 l 186 416 l 186 347 l 186 277 l 186 208 l 186 139 l 186 69 l 186 0 l 117 0 l 47 0 l 47 69 l 47 139 l 47 208 l 47 277 l 47 347 l 47 416 l 47 486 l 47 555 l 47 625 l 47 694 l 117 694 l 186 694 l 256 694 l 325 694 l 325 625 l 394 625 l 394 555 l 394 486 l 394 416 l 394 347 l 394 277 l 394 208 l 394 139 l 394 69 l 464 69 l 464 139 l 464 208 l 464 277 l 464 347 l 464 416 l 464 486 l 464 555 l 464 625 l 464 694 l 533 694 z "},"O":{"ha":650,"x_min":47,"x_max":603,"o":"m 534 624 l 534 624 l 603 624 l 603 555 l 603 486 l 603 416 l 603 347 l 603 277 l 603 208 l 603 138 l 603 68 l 534 68 l 534 -1 l 465 -1 l 395 -1 l 326 -1 l 256 -1 l 186 -1 l 117 -1 l 117 68 l 47 68 l 47 138 l 47 208 l 47 277 l 47 347 l 47 416 l 47 486 l 47 555 l 47 624 l 117 624 l 117 694 l 186 694 l 256 694 l 326 694 l 395 694 l 465 694 l 534 694 l 534 624 m 465 486 l 465 486 l 465 555 l 395 555 l 326 555 l 256 555 l 186 555 l 186 486 l 186 416 l 186 347 l 186 277 l 186 208 l 186 138 l 256 138 l 326 138 l 395 138 l 465 138 l 465 208 l 465 277 l 465 347 l 465 416 l 465 486 z "},"P":{"ha":650,"x_min":47,"x_max":603,"o":"m 534 624 l 534 624 l 603 624 l 603 555 l 603 486 l 603 416 l 603 347 l 534 347 l 534 277 l 464 277 l 464 208 l 395 208 l 326 208 l 256 208 l 186 208 l 186 138 l 186 68 l 186 -1 l 117 -1 l 47 -1 l 47 68 l 47 138 l 47 208 l 47 277 l 47 347 l 47 416 l 47 486 l 47 555 l 47 624 l 47 694 l 117 694 l 186 694 l 256 694 l 326 694 l 395 694 l 464 694 l 534 694 l 534 624 m 395 347 l 395 347 l 464 347 l 464 416 l 464 486 l 464 555 l 395 555 l 326 555 l 256 555 l 186 555 l 186 486 l 186 416 l 186 347 l 256 347 l 326 347 l 395 347 z "},"Q":{"ha":720,"x_min":47,"x_max":672,"o":"m 603 208 l 603 208 l 672 208 l 672 138 l 672 69 l 672 -1 l 603 -1 l 603 69 l 533 69 l 533 -1 l 464 -1 l 395 -1 l 325 -1 l 256 -1 l 186 -1 l 117 -1 l 117 69 l 47 69 l 47 138 l 47 208 l 47 277 l 47 347 l 47 416 l 47 486 l 47 555 l 47 624 l 117 624 l 186 624 l 186 694 l 256 694 l 325 694 l 395 694 l 464 694 l 533 694 l 533 624 l 603 624 l 603 555 l 603 486 l 603 416 l 603 347 l 603 277 l 603 208 m 256 555 l 256 555 l 186 555 l 186 486 l 186 416 l 186 347 l 186 277 l 186 208 l 186 138 l 256 138 l 325 138 l 395 138 l 395 208 l 464 208 l 464 277 l 464 347 l 464 416 l 464 486 l 464 555 l 395 555 l 325 555 l 256 555 z "},"R":{"ha":650,"x_min":47,"x_max":603,"o":"m 534 624 l 534 624 l 603 624 l 603 555 l 603 486 l 603 416 l 603 347 l 534 347 l 534 277 l 464 277 l 464 208 l 534 208 l 534 138 l 603 138 l 603 69 l 603 -1 l 534 -1 l 464 -1 l 464 69 l 395 69 l 395 138 l 325 138 l 325 208 l 256 208 l 186 208 l 186 138 l 186 69 l 186 -1 l 117 -1 l 47 -1 l 47 69 l 47 138 l 47 208 l 47 277 l 47 347 l 47 416 l 47 486 l 47 555 l 47 624 l 47 694 l 117 694 l 186 694 l 256 694 l 325 694 l 395 694 l 464 694 l 534 694 l 534 624 m 395 347 l 395 347 l 464 347 l 464 416 l 464 486 l 464 555 l 395 555 l 325 555 l 256 555 l 186 555 l 186 486 l 186 416 l 186 347 l 256 347 l 325 347 l 395 347 z "},"S":{"ha":650,"x_min":47,"x_max":603,"o":"m 533 624 l 533 624 l 603 624 l 603 555 l 603 486 l 533 486 l 464 486 l 464 555 l 395 555 l 325 555 l 256 555 l 186 555 l 186 486 l 186 416 l 256 416 l 325 416 l 395 416 l 464 416 l 533 416 l 533 347 l 603 347 l 603 277 l 603 208 l 603 138 l 603 69 l 533 69 l 533 -1 l 464 -1 l 395 -1 l 325 -1 l 256 -1 l 186 -1 l 117 -1 l 117 69 l 47 69 l 47 138 l 47 208 l 117 208 l 186 208 l 186 138 l 256 138 l 325 138 l 395 138 l 464 138 l 464 208 l 464 277 l 395 277 l 325 277 l 256 277 l 186 277 l 186 347 l 117 347 l 117 416 l 47 416 l 47 486 l 47 555 l 47 624 l 117 624 l 117 694 l 186 694 l 256 694 l 325 694 l 395 694 l 464 694 l 533 694 l 533 624 z "},"T":{"ha":650,"x_min":47,"x_max":603,"o":"m 533 694 l 533 694 l 603 694 l 603 624 l 603 555 l 603 486 l 533 486 l 533 555 l 464 555 l 395 555 l 395 486 l 395 416 l 395 347 l 395 277 l 395 208 l 395 138 l 395 69 l 395 -1 l 325 -1 l 256 -1 l 256 69 l 256 138 l 256 208 l 256 277 l 256 347 l 256 416 l 256 486 l 256 555 l 186 555 l 117 555 l 117 486 l 47 486 l 47 555 l 47 624 l 47 694 l 117 694 l 186 694 l 256 694 l 325 694 l 395 694 l 464 694 l 533 694 z "},"U":{"ha":650,"x_min":47,"x_max":603,"o":"m 533 694 l 533 694 l 603 694 l 603 624 l 603 555 l 603 486 l 603 416 l 603 347 l 603 277 l 603 208 l 603 138 l 603 68 l 533 68 l 533 -1 l 464 -1 l 394 -1 l 325 -1 l 256 -1 l 186 -1 l 117 -1 l 117 68 l 47 68 l 47 138 l 47 208 l 47 277 l 47 347 l 47 416 l 47 486 l 47 555 l 47 624 l 47 694 l 117 694 l 186 694 l 186 624 l 186 555 l 186 486 l 186 416 l 186 347 l 186 277 l 186 208 l 186 138 l 256 138 l 325 138 l 394 138 l 464 138 l 464 208 l 464 277 l 464 347 l 464 416 l 464 486 l 464 555 l 464 624 l 464 694 l 533 694 z "},"V":{"ha":650,"x_min":47,"x_max":602,"o":"m 533 694 l 533 694 l 602 694 l 602 624 l 602 555 l 602 486 l 602 416 l 602 347 l 602 277 l 602 208 l 602 138 l 533 138 l 533 68 l 464 68 l 394 68 l 394 -1 l 325 -1 l 256 -1 l 256 68 l 186 68 l 117 68 l 117 138 l 47 138 l 47 208 l 47 277 l 47 347 l 47 416 l 47 486 l 47 555 l 47 624 l 47 694 l 117 694 l 186 694 l 186 624 l 186 555 l 186 486 l 186 416 l 186 347 l 186 277 l 186 208 l 256 208 l 256 138 l 325 138 l 394 138 l 394 208 l 464 208 l 464 277 l 464 347 l 464 416 l 464 486 l 464 555 l 464 624 l 464 694 l 533 694 z "},"W":{"ha":650,"x_min":47,"x_max":602,"o":"m 533 694 l 533 694 l 602 694 l 602 624 l 602 555 l 602 486 l 602 416 l 602 347 l 602 277 l 602 208 l 602 138 l 602 68 l 602 -1 l 533 -1 l 464 -1 l 464 68 l 394 68 l 394 138 l 325 138 l 256 138 l 256 68 l 186 68 l 186 -1 l 117 -1 l 47 -1 l 47 68 l 47 138 l 47 208 l 47 277 l 47 347 l 47 416 l 47 486 l 47 555 l 47 624 l 47 694 l 117 694 l 186 694 l 186 624 l 186 555 l 186 486 l 186 416 l 186 347 l 186 277 l 186 208 l 256 208 l 256 277 l 256 347 l 256 416 l 256 486 l 256 555 l 256 624 l 325 624 l 394 624 l 394 555 l 394 486 l 394 416 l 394 347 l 394 277 l 394 208 l 464 208 l 464 277 l 464 347 l 464 416 l 464 486 l 464 555 l 464 624 l 464 694 l 533 694 z "},"X":{"ha":650,"x_min":47,"x_max":603,"o":"m 534 694 l 534 694 l 603 694 l 603 624 l 603 555 l 603 486 l 534 486 l 534 416 l 465 416 l 465 347 l 395 347 l 395 277 l 465 277 l 465 208 l 534 208 l 534 138 l 603 138 l 603 68 l 603 -1 l 534 -1 l 465 -1 l 465 68 l 395 68 l 395 138 l 326 138 l 256 138 l 256 68 l 186 68 l 186 -1 l 117 -1 l 47 -1 l 47 68 l 47 138 l 117 138 l 117 208 l 186 208 l 186 277 l 256 277 l 256 347 l 186 347 l 186 416 l 117 416 l 117 486 l 47 486 l 47 555 l 47 624 l 47 694 l 117 694 l 186 694 l 186 624 l 186 555 l 256 555 l 256 486 l 326 486 l 395 486 l 395 555 l 465 555 l 465 624 l 465 694 l 534 694 z "},"Y":{"ha":650,"x_min":47,"x_max":603,"o":"m 534 694 l 534 694 l 603 694 l 603 624 l 603 555 l 603 486 l 603 416 l 534 416 l 534 347 l 464 347 l 464 277 l 395 277 l 395 208 l 395 138 l 395 68 l 395 -1 l 326 -1 l 256 -1 l 256 68 l 256 138 l 256 208 l 256 277 l 186 277 l 186 347 l 117 347 l 117 416 l 47 416 l 47 486 l 47 555 l 47 624 l 47 694 l 117 694 l 186 694 l 186 624 l 186 555 l 186 486 l 256 486 l 256 416 l 326 416 l 395 416 l 395 486 l 464 486 l 464 555 l 464 624 l 464 694 l 534 694 z "},"Z":{"ha":650,"x_min":47,"x_max":603,"o":"m 534 694 l 534 694 l 603 694 l 603 624 l 603 555 l 603 486 l 534 486 l 534 416 l 464 416 l 464 347 l 395 347 l 395 277 l 326 277 l 326 208 l 256 208 l 256 138 l 326 138 l 395 138 l 464 138 l 534 138 l 603 138 l 603 68 l 603 -1 l 534 -1 l 464 -1 l 395 -1 l 326 -1 l 256 -1 l 186 -1 l 117 -1 l 47 -1 l 47 68 l 47 138 l 47 208 l 117 208 l 117 277 l 186 277 l 186 347 l 256 347 l 256 416 l 326 416 l 326 486 l 395 486 l 395 555 l 326 555 l 256 555 l 186 555 l 117 555 l 47 555 l 47 624 l 47 694 l 117 694 l 186 694 l 256 694 l 326 694 l 395 694 l 464 694 l 534 694 z "},"[":{"ha":303,"x_min":47,"x_max":256,"o":"m 186 694 l 186 694 l 256 694 l 256 625 l 256 555 l 186 555 l 186 486 l 186 416 l 186 347 l 186 277 l 186 208 l 186 138 l 256 138 l 256 69 l 256 0 l 186 0 l 117 0 l 47 0 l 47 69 l 47 138 l 47 208 l 47 277 l 47 347 l 47 416 l 47 486 l 47 555 l 47 625 l 47 694 l 117 694 l 186 694 z "},"\\":{"ha":650,"x_min":47,"x_max":603,"o":"m 534 0 l 465 0 l 465 69 l 465 138 l 395 138 l 395 208 l 326 208 l 326 277 l 256 277 l 256 347 l 186 347 l 186 416 l 117 416 l 47 416 l 47 486 l 47 555 l 47 625 l 47 694 l 117 694 l 186 694 l 186 625 l 186 555 l 256 555 l 256 486 l 326 486 l 326 416 l 395 416 l 395 347 l 465 347 l 465 277 l 534 277 l 603 277 l 603 208 l 603 138 l 603 69 l 603 0 l 534 0 l 534 0 z "},"]":{"ha":303,"x_min":47,"x_max":256,"o":"m 186 694 l 186 694 l 256 694 l 256 625 l 256 555 l 256 486 l 256 416 l 256 347 l 256 277 l 256 208 l 256 138 l 256 69 l 256 0 l 186 0 l 117 0 l 47 0 l 47 69 l 47 138 l 117 138 l 117 208 l 117 277 l 117 347 l 117 416 l 117 486 l 117 555 l 47 555 l 47 625 l 47 694 l 117 694 l 186 694 z "},"^":{"ha":789,"x_min":47,"x_max":741,"o":"m 741 408 l 741 408 l 741 339 l 672 339 l 602 339 l 602 408 l 602 478 l 533 478 l 533 547 l 533 616 l 464 616 l 464 686 l 464 755 l 394 755 l 325 755 l 325 686 l 325 616 l 256 616 l 256 547 l 256 478 l 186 478 l 186 408 l 186 339 l 117 339 l 47 339 l 47 408 l 117 408 l 117 478 l 117 547 l 186 547 l 186 616 l 186 686 l 256 686 l 256 755 l 256 825 l 325 825 l 325 895 l 394 895 l 464 895 l 464 825 l 533 825 l 533 755 l 533 686 l 602 686 l 602 616 l 602 547 l 672 547 l 672 478 l 672 408 l 741 408 z "},"_":{"ha":650,"x_min":47,"x_max":603,"o":"m 534 69 l 534 69 l 603 69 l 603 0 l 603 -70 l 534 -70 l 464 -70 l 395 -70 l 326 -70 l 256 -70 l 186 -70 l 117 -70 l 47 -70 l 47 0 l 47 69 l 117 69 l 186 69 l 256 69 l 326 69 l 395 69 l 464 69 l 534 69 z "},"`":{"ha":303,"x_min":47,"x_max":256,"o":"m 186 764 l 186 764 l 256 764 l 256 694 l 256 625 l 186 625 l 117 625 l 117 694 l 47 694 l 47 764 l 47 833 l 117 833 l 186 833 l 186 764 z "},"a":{"ha":650,"x_min":47,"x_max":603,"o":"m 534 555 l 534 555 l 603 555 l 603 485 l 603 416 l 603 347 l 603 277 l 603 208 l 603 138 l 603 68 l 603 -1 l 534 -1 l 465 -1 l 465 68 l 465 138 l 465 208 l 395 208 l 326 208 l 256 208 l 186 208 l 186 138 l 186 68 l 186 -1 l 117 -1 l 47 -1 l 47 68 l 47 138 l 47 208 l 47 277 l 47 347 l 47 416 l 47 485 l 47 555 l 117 555 l 117 624 l 186 624 l 186 694 l 256 694 l 326 694 l 395 694 l 465 694 l 465 624 l 534 624 l 534 555 m 465 416 l 465 416 l 465 486 l 395 486 l 395 555 l 326 555 l 256 555 l 256 486 l 187 486 l 187 416 l 187 347 l 256 347 l 326 347 l 395 347 l 465 347 l 465 416 z "},"b":{"ha":650,"x_min":47,"x_max":603,"o":"m 534 625 l 534 625 l 603 625 l 603 555 l 603 486 l 603 416 l 534 416 l 534 347 l 603 347 l 603 277 l 603 208 l 603 139 l 603 69 l 534 69 l 534 0 l 465 0 l 395 0 l 326 0 l 256 0 l 186 0 l 117 0 l 47 0 l 47 69 l 47 139 l 47 208 l 47 277 l 47 347 l 47 416 l 47 486 l 47 555 l 47 625 l 47 694 l 117 694 l 186 694 l 256 694 l 326 694 l 395 694 l 465 694 l 534 694 l 534 625 m 465 208 l 465 208 l 465 277 l 395 277 l 326 277 l 256 277 l 186 277 l 186 208 l 186 139 l 256 139 l 326 139 l 395 139 l 465 139 l 465 208 m 395 416 l 395 416 l 465 416 l 465 486 l 465 555 l 395 555 l 326 555 l 256 555 l 186 555 l 186 486 l 186 416 l 256 416 l 326 416 l 395 416 z "},"c":{"ha":650,"x_min":47,"x_max":603,"o":"m 534 625 l 534 625 l 603 625 l 603 555 l 603 486 l 534 486 l 464 486 l 464 555 l 395 555 l 326 555 l 256 555 l 186 555 l 186 486 l 186 416 l 186 347 l 186 277 l 186 208 l 186 139 l 256 139 l 326 139 l 395 139 l 464 139 l 464 208 l 534 208 l 603 208 l 603 139 l 603 69 l 534 69 l 534 0 l 464 0 l 395 0 l 326 0 l 256 0 l 186 0 l 117 0 l 117 69 l 47 69 l 47 139 l 47 208 l 47 277 l 47 347 l 47 416 l 47 486 l 47 555 l 47 625 l 117 625 l 117 694 l 186 694 l 256 694 l 326 694 l 395 694 l 464 694 l 534 694 l 534 625 z "},"d":{"ha":650,"x_min":47,"x_max":603,"o":"m 534 555 l 534 555 l 603 555 l 603 486 l 603 416 l 603 347 l 603 277 l 603 208 l 603 139 l 534 139 l 534 69 l 464 69 l 464 0 l 395 0 l 326 0 l 256 0 l 186 0 l 117 0 l 47 0 l 47 69 l 47 139 l 47 208 l 47 277 l 47 347 l 47 416 l 47 486 l 47 555 l 47 625 l 47 694 l 117 694 l 186 694 l 256 694 l 326 694 l 395 694 l 464 694 l 464 625 l 534 625 l 534 555 m 464 486 l 464 486 l 464 555 l 395 555 l 326 555 l 256 555 l 186 555 l 186 486 l 186 416 l 186 347 l 186 277 l 186 208 l 186 139 l 256 139 l 326 139 l 395 139 l 464 139 l 464 208 l 464 277 l 464 347 l 464 416 l 464 486 z "},"e":{"ha":650,"x_min":47,"x_max":603,"o":"m 534 694 l 534 694 l 603 694 l 603 625 l 603 555 l 534 555 l 464 555 l 395 555 l 325 555 l 256 555 l 186 555 l 186 486 l 186 416 l 256 416 l 325 416 l 395 416 l 464 416 l 534 416 l 534 347 l 464 347 l 464 277 l 395 277 l 325 277 l 256 277 l 186 277 l 186 208 l 186 139 l 256 139 l 325 139 l 395 139 l 464 139 l 534 139 l 603 139 l 603 69 l 603 0 l 534 0 l 464 0 l 395 0 l 325 0 l 256 0 l 186 0 l 117 0 l 47 0 l 47 69 l 47 139 l 47 208 l 47 277 l 47 347 l 47 416 l 47 486 l 47 555 l 47 625 l 47 694 l 117 694 l 186 694 l 256 694 l 325 694 l 395 694 l 464 694 l 534 694 z "},"f":{"ha":650,"x_min":47,"x_max":603,"o":"m 533 694 l 533 694 l 603 694 l 603 625 l 603 555 l 533 555 l 464 555 l 395 555 l 325 555 l 256 555 l 186 555 l 186 486 l 186 416 l 256 416 l 325 416 l 395 416 l 464 416 l 533 416 l 533 347 l 464 347 l 464 277 l 395 277 l 325 277 l 256 277 l 186 277 l 186 208 l 186 139 l 186 69 l 186 0 l 117 0 l 47 0 l 47 69 l 47 139 l 47 208 l 47 277 l 47 347 l 47 416 l 47 486 l 47 555 l 47 625 l 47 694 l 117 694 l 186 694 l 256 694 l 325 694 l 395 694 l 464 694 l 533 694 z "},"g":{"ha":650,"x_min":47,"x_max":603,"o":"m 533 625 l 533 625 l 603 625 l 603 555 l 603 486 l 533 486 l 464 486 l 464 555 l 395 555 l 325 555 l 256 555 l 186 555 l 186 486 l 186 416 l 186 347 l 186 277 l 186 208 l 186 139 l 256 139 l 325 139 l 395 139 l 464 139 l 464 208 l 464 277 l 395 277 l 325 277 l 256 277 l 256 347 l 256 416 l 325 416 l 395 416 l 464 416 l 533 416 l 533 347 l 603 347 l 603 277 l 603 208 l 603 139 l 603 69 l 533 69 l 533 0 l 464 0 l 395 0 l 325 0 l 256 0 l 186 0 l 117 0 l 117 69 l 47 69 l 47 139 l 47 208 l 47 277 l 47 347 l 47 416 l 47 486 l 47 555 l 47 625 l 117 625 l 117 694 l 186 694 l 256 694 l 325 694 l 395 694 l 464 694 l 533 694 l 533 625 z "},"h":{"ha":650,"x_min":47,"x_max":602,"o":"m 533 694 l 533 694 l 602 694 l 602 625 l 602 555 l 602 486 l 602 416 l 602 347 l 602 277 l 602 208 l 602 139 l 602 69 l 602 0 l 533 0 l 464 0 l 464 69 l 464 139 l 464 208 l 464 277 l 394 277 l 325 277 l 256 277 l 186 277 l 186 208 l 186 139 l 186 69 l 186 0 l 117 0 l 47 0 l 47 69 l 47 139 l 47 208 l 47 277 l 47 347 l 47 416 l 47 486 l 47 555 l 47 625 l 47 694 l 117 694 l 186 694 l 186 625 l 186 555 l 186 486 l 186 416 l 256 416 l 325 416 l 394 416 l 464 416 l 464 486 l 464 555 l 464 625 l 464 694 l 533 694 z "},"i":{"ha":650,"x_min":47,"x_max":603,"o":"m 534 694 l 534 694 l 534 612 l 534 555 l 464 555 l 395 555 l 395 486 l 395 416 l 395 347 l 395 277 l 395 208 l 395 139 l 464 139 l 534 139 l 534 0 l 464 0 l 395 0 l 326 0 l 256 0 l 186 0 l 117 0 l 117 139 l 186 139 l 256 139 l 256 208 l 256 277 l 256 347 l 256 416 l 256 486 l 256 555 l 186 555 l 117 555 l 117 694 l 186 694 l 256 694 l 326 694 l 395 694 l 464 694 l 534 694 m 534 694 l 534 694 l 603 694 l 603 625 l 603 555 l 534 555 l 464 555 l 395 555 l 326 555 l 256 555 l 186 555 l 117 555 l 47 555 l 47 625 l 47 694 l 117 694 l 186 694 l 256 694 l 326 694 l 395 694 l 464 694 l 534 694 m 534 138 l 534 138 l 603 138 l 603 69 l 603 0 l 534 0 l 464 0 l 395 0 l 326 0 l 256 0 l 186 0 l 117 0 l 47 0 l 47 69 l 47 138 l 117 138 l 186 138 l 256 138 l 326 138 l 395 138 l 464 138 l 534 138 z "},"j":{"ha":650,"x_min":47,"x_max":603,"o":"m 534 694 l 534 694 l 603 694 l 603 625 l 603 555 l 603 486 l 603 416 l 603 347 l 603 277 l 603 208 l 603 139 l 603 69 l 534 69 l 534 0 l 464 0 l 395 0 l 326 0 l 256 0 l 186 0 l 117 0 l 117 69 l 47 69 l 47 139 l 47 208 l 117 208 l 186 208 l 186 139 l 256 139 l 326 139 l 395 139 l 464 139 l 464 208 l 464 277 l 464 347 l 464 416 l 464 486 l 464 555 l 464 625 l 395 625 l 326 625 l 326 694 l 395 694 l 464 694 l 534 694 z "},"k":{"ha":650,"x_min":47,"x_max":603,"o":"m 325 416 l 325 416 l 325 347 l 325 277 l 395 277 l 395 208 l 464 208 l 464 138 l 533 138 l 533 68 l 603 68 l 603 -1 l 533 -1 l 464 -1 l 395 -1 l 395 68 l 325 68 l 325 138 l 256 138 l 256 208 l 186 208 l 186 138 l 186 68 l 186 -1 l 117 -1 l 47 -1 l 47 68 l 47 138 l 47 208 l 47 277 l 47 347 l 47 416 l 47 486 l 47 555 l 47 624 l 47 694 l 117 694 l 186 694 l 186 624 l 186 555 l 186 486 l 256 486 l 256 555 l 325 555 l 325 624 l 395 624 l 395 694 l 464 694 l 533 694 l 603 694 l 603 624 l 533 624 l 533 555 l 464 555 l 464 486 l 395 486 l 395 416 l 325 416 z "},"l":{"ha":650,"x_min":47,"x_max":603,"o":"m 533 208 l 533 208 l 603 208 l 603 138 l 603 68 l 603 -1 l 533 -1 l 464 -1 l 394 -1 l 325 -1 l 256 -1 l 186 -1 l 117 -1 l 47 -1 l 47 68 l 47 138 l 47 208 l 47 277 l 47 347 l 47 416 l 47 486 l 47 555 l 47 624 l 47 694 l 117 694 l 186 694 l 186 624 l 186 555 l 186 486 l 186 416 l 186 347 l 186 277 l 186 208 l 186 138 l 256 138 l 325 138 l 394 138 l 464 138 l 464 208 l 533 208 z "},"m":{"ha":650,"x_min":47,"x_max":602,"o":"m 533 694 l 533 694 l 602 694 l 602 624 l 602 555 l 602 486 l 602 416 l 602 347 l 602 277 l 602 208 l 602 138 l 602 68 l 602 -1 l 533 -1 l 464 -1 l 464 68 l 464 138 l 464 208 l 464 277 l 464 347 l 464 416 l 464 486 l 394 486 l 394 416 l 394 347 l 394 277 l 394 208 l 394 138 l 394 68 l 325 68 l 256 68 l 256 138 l 256 208 l 256 277 l 256 347 l 256 416 l 256 486 l 186 486 l 186 416 l 186 347 l 186 277 l 186 208 l 186 138 l 186 68 l 186 -1 l 117 -1 l 47 -1 l 47 68 l 47 138 l 47 208 l 47 277 l 47 347 l 47 416 l 47 486 l 47 555 l 47 624 l 47 694 l 117 694 l 186 694 l 186 624 l 256 624 l 256 555 l 325 555 l 394 555 l 394 624 l 464 624 l 464 694 l 533 694 z "},"n":{"ha":650,"x_min":47,"x_max":602,"o":"m 533 694 l 533 694 l 602 694 l 602 625 l 602 555 l 602 486 l 602 416 l 602 347 l 602 277 l 602 208 l 602 139 l 602 69 l 602 0 l 533 0 l 464 0 l 394 0 l 325 0 l 325 69 l 256 69 l 256 139 l 256 208 l 256 277 l 256 347 l 256 416 l 256 486 l 256 555 l 256 625 l 186 625 l 186 555 l 186 486 l 186 416 l 186 347 l 186 277 l 186 208 l 186 139 l 186 69 l 186 0 l 117 0 l 47 0 l 47 69 l 47 139 l 47 208 l 47 277 l 47 347 l 47 416 l 47 486 l 47 555 l 47 625 l 47 694 l 117 694 l 186 694 l 256 694 l 325 694 l 325 625 l 394 625 l 394 555 l 394 486 l 394 416 l 394 347 l 394 277 l 394 208 l 394 139 l 394 69 l 464 69 l 464 139 l 464 208 l 464 277 l 464 347 l 464 416 l 464 486 l 464 555 l 464 625 l 464 694 l 533 694 z "},"o":{"ha":650,"x_min":47,"x_max":603,"o":"m 534 624 l 534 624 l 603 624 l 603 555 l 603 486 l 603 416 l 603 347 l 603 277 l 603 208 l 603 138 l 603 68 l 534 68 l 534 -1 l 465 -1 l 395 -1 l 326 -1 l 256 -1 l 186 -1 l 117 -1 l 117 68 l 47 68 l 47 138 l 47 208 l 47 277 l 47 347 l 47 416 l 47 486 l 47 555 l 47 624 l 117 624 l 117 694 l 186 694 l 256 694 l 326 694 l 395 694 l 465 694 l 534 694 l 534 624 m 465 486 l 465 486 l 465 555 l 395 555 l 326 555 l 256 555 l 186 555 l 186 486 l 186 416 l 186 347 l 186 277 l 186 208 l 186 138 l 256 138 l 326 138 l 395 138 l 465 138 l 465 208 l 465 277 l 465 347 l 465 416 l 465 486 z "},"p":{"ha":650,"x_min":47,"x_max":603,"o":"m 534 624 l 534 624 l 603 624 l 603 555 l 603 486 l 603 416 l 603 347 l 534 347 l 534 277 l 464 277 l 464 208 l 395 208 l 326 208 l 256 208 l 186 208 l 186 138 l 186 68 l 186 -1 l 117 -1 l 47 -1 l 47 68 l 47 138 l 47 208 l 47 277 l 47 347 l 47 416 l 47 486 l 47 555 l 47 624 l 47 694 l 117 694 l 186 694 l 256 694 l 326 694 l 395 694 l 464 694 l 534 694 l 534 624 m 395 347 l 395 347 l 464 347 l 464 416 l 464 486 l 464 555 l 395 555 l 326 555 l 256 555 l 186 555 l 186 486 l 186 416 l 186 347 l 256 347 l 326 347 l 395 347 z "},"q":{"ha":720,"x_min":47,"x_max":672,"o":"m 603 208 l 603 208 l 672 208 l 672 138 l 672 69 l 672 -1 l 603 -1 l 603 69 l 533 69 l 533 -1 l 464 -1 l 395 -1 l 325 -1 l 256 -1 l 186 -1 l 117 -1 l 117 69 l 47 69 l 47 138 l 47 208 l 47 277 l 47 347 l 47 416 l 47 486 l 47 555 l 47 624 l 117 624 l 186 624 l 186 694 l 256 694 l 325 694 l 395 694 l 464 694 l 533 694 l 533 624 l 603 624 l 603 555 l 603 486 l 603 416 l 603 347 l 603 277 l 603 208 m 256 555 l 256 555 l 186 555 l 186 486 l 186 416 l 186 347 l 186 277 l 186 208 l 186 138 l 256 138 l 325 138 l 395 138 l 395 208 l 464 208 l 464 277 l 464 347 l 464 416 l 464 486 l 464 555 l 395 555 l 325 555 l 256 555 z "},"r":{"ha":650,"x_min":47,"x_max":603,"o":"m 534 624 l 534 624 l 603 624 l 603 555 l 603 486 l 603 416 l 603 347 l 534 347 l 534 277 l 464 277 l 464 208 l 534 208 l 534 138 l 603 138 l 603 69 l 603 -1 l 534 -1 l 464 -1 l 464 69 l 395 69 l 395 138 l 325 138 l 325 208 l 256 208 l 186 208 l 186 138 l 186 69 l 186 -1 l 117 -1 l 47 -1 l 47 69 l 47 138 l 47 208 l 47 277 l 47 347 l 47 416 l 47 486 l 47 555 l 47 624 l 47 694 l 117 694 l 186 694 l 256 694 l 325 694 l 395 694 l 464 694 l 534 694 l 534 624 m 395 347 l 395 347 l 464 347 l 464 416 l 464 486 l 464 555 l 395 555 l 325 555 l 256 555 l 186 555 l 186 486 l 186 416 l 186 347 l 256 347 l 325 347 l 395 347 z "},"s":{"ha":650,"x_min":47,"x_max":603,"o":"m 533 624 l 533 624 l 603 624 l 603 555 l 603 486 l 533 486 l 464 486 l 464 555 l 395 555 l 325 555 l 256 555 l 186 555 l 186 486 l 186 416 l 256 416 l 325 416 l 395 416 l 464 416 l 533 416 l 533 347 l 603 347 l 603 277 l 603 208 l 603 138 l 603 69 l 533 69 l 533 -1 l 464 -1 l 395 -1 l 325 -1 l 256 -1 l 186 -1 l 117 -1 l 117 69 l 47 69 l 47 138 l 47 208 l 117 208 l 186 208 l 186 138 l 256 138 l 325 138 l 395 138 l 464 138 l 464 208 l 464 277 l 395 277 l 325 277 l 256 277 l 186 277 l 186 347 l 117 347 l 117 416 l 47 416 l 47 486 l 47 555 l 47 624 l 117 624 l 117 694 l 186 694 l 256 694 l 325 694 l 395 694 l 464 694 l 533 694 l 533 624 z "},"t":{"ha":650,"x_min":47,"x_max":603,"o":"m 533 694 l 533 694 l 603 694 l 603 624 l 603 555 l 603 486 l 533 486 l 533 555 l 464 555 l 395 555 l 395 486 l 395 416 l 395 347 l 395 277 l 395 208 l 395 138 l 395 69 l 395 -1 l 325 -1 l 256 -1 l 256 69 l 256 138 l 256 208 l 256 277 l 256 347 l 256 416 l 256 486 l 256 555 l 186 555 l 117 555 l 117 486 l 47 486 l 47 555 l 47 624 l 47 694 l 117 694 l 186 694 l 256 694 l 325 694 l 395 694 l 464 694 l 533 694 z "},"u":{"ha":650,"x_min":47,"x_max":603,"o":"m 533 694 l 533 694 l 603 694 l 603 624 l 603 555 l 603 486 l 603 416 l 603 347 l 603 277 l 603 208 l 603 138 l 603 68 l 533 68 l 533 -1 l 464 -1 l 394 -1 l 325 -1 l 256 -1 l 186 -1 l 117 -1 l 117 68 l 47 68 l 47 138 l 47 208 l 47 277 l 47 347 l 47 416 l 47 486 l 47 555 l 47 624 l 47 694 l 117 694 l 186 694 l 186 624 l 186 555 l 186 486 l 186 416 l 186 347 l 186 277 l 186 208 l 186 138 l 256 138 l 325 138 l 394 138 l 464 138 l 464 208 l 464 277 l 464 347 l 464 416 l 464 486 l 464 555 l 464 624 l 464 694 l 533 694 z "},"v":{"ha":650,"x_min":47,"x_max":602,"o":"m 533 694 l 533 694 l 602 694 l 602 624 l 602 555 l 602 486 l 602 416 l 602 347 l 602 277 l 602 208 l 602 138 l 533 138 l 533 68 l 464 68 l 394 68 l 394 -1 l 325 -1 l 256 -1 l 256 68 l 186 68 l 117 68 l 117 138 l 47 138 l 47 208 l 47 277 l 47 347 l 47 416 l 47 486 l 47 555 l 47 624 l 47 694 l 117 694 l 186 694 l 186 624 l 186 555 l 186 486 l 186 416 l 186 347 l 186 277 l 186 208 l 256 208 l 256 138 l 325 138 l 394 138 l 394 208 l 464 208 l 464 277 l 464 347 l 464 416 l 464 486 l 464 555 l 464 624 l 464 694 l 533 694 z "},"w":{"ha":650,"x_min":47,"x_max":602,"o":"m 533 694 l 533 694 l 602 694 l 602 624 l 602 555 l 602 486 l 602 416 l 602 347 l 602 277 l 602 208 l 602 138 l 602 68 l 602 -1 l 533 -1 l 464 -1 l 464 68 l 394 68 l 394 138 l 325 138 l 256 138 l 256 68 l 186 68 l 186 -1 l 117 -1 l 47 -1 l 47 68 l 47 138 l 47 208 l 47 277 l 47 347 l 47 416 l 47 486 l 47 555 l 47 624 l 47 694 l 117 694 l 186 694 l 186 624 l 186 555 l 186 486 l 186 416 l 186 347 l 186 277 l 186 208 l 256 208 l 256 277 l 256 347 l 256 416 l 256 486 l 256 555 l 256 624 l 325 624 l 394 624 l 394 555 l 394 486 l 394 416 l 394 347 l 394 277 l 394 208 l 464 208 l 464 277 l 464 347 l 464 416 l 464 486 l 464 555 l 464 624 l 464 694 l 533 694 z "},"x":{"ha":650,"x_min":47,"x_max":603,"o":"m 534 694 l 534 694 l 603 694 l 603 624 l 603 555 l 603 486 l 534 486 l 534 416 l 465 416 l 465 347 l 395 347 l 395 277 l 465 277 l 465 208 l 534 208 l 534 138 l 603 138 l 603 68 l 603 -1 l 534 -1 l 465 -1 l 465 68 l 395 68 l 395 138 l 326 138 l 256 138 l 256 68 l 186 68 l 186 -1 l 117 -1 l 47 -1 l 47 68 l 47 138 l 117 138 l 117 208 l 186 208 l 186 277 l 256 277 l 256 347 l 186 347 l 186 416 l 117 416 l 117 486 l 47 486 l 47 555 l 47 624 l 47 694 l 117 694 l 186 694 l 186 624 l 186 555 l 256 555 l 256 486 l 326 486 l 395 486 l 395 555 l 465 555 l 465 624 l 465 694 l 534 694 z "},"y":{"ha":650,"x_min":47,"x_max":603,"o":"m 534 694 l 534 694 l 603 694 l 603 624 l 603 555 l 603 486 l 603 416 l 534 416 l 534 347 l 464 347 l 464 277 l 395 277 l 395 208 l 395 138 l 395 68 l 395 -1 l 326 -1 l 256 -1 l 256 68 l 256 138 l 256 208 l 256 277 l 186 277 l 186 347 l 117 347 l 117 416 l 47 416 l 47 486 l 47 555 l 47 624 l 47 694 l 117 694 l 186 694 l 186 624 l 186 555 l 186 486 l 256 486 l 256 416 l 326 416 l 395 416 l 395 486 l 464 486 l 464 555 l 464 624 l 464 694 l 534 694 z "},"z":{"ha":650,"x_min":47,"x_max":603,"o":"m 534 694 l 534 694 l 603 694 l 603 624 l 603 555 l 603 486 l 534 486 l 534 416 l 464 416 l 464 347 l 395 347 l 395 277 l 326 277 l 326 208 l 256 208 l 256 138 l 326 138 l 395 138 l 464 138 l 534 138 l 603 138 l 603 68 l 603 -1 l 534 -1 l 464 -1 l 395 -1 l 326 -1 l 256 -1 l 186 -1 l 117 -1 l 47 -1 l 47 68 l 47 138 l 47 208 l 117 208 l 117 277 l 186 277 l 186 347 l 256 347 l 256 416 l 326 416 l 326 486 l 395 486 l 395 555 l 326 555 l 256 555 l 186 555 l 117 555 l 47 555 l 47 624 l 47 694 l 117 694 l 186 694 l 256 694 l 326 694 l 395 694 l 464 694 l 534 694 z "},"{":{"ha":442,"x_min":47,"x_max":395,"o":"m 325 694 l 325 694 l 395 694 l 395 625 l 395 555 l 325 555 l 325 486 l 325 416 l 256 416 l 186 416 l 186 486 l 186 555 l 186 625 l 256 625 l 256 694 l 325 694 m 186 138 l 186 138 l 186 208 l 186 277 l 256 277 l 325 277 l 325 208 l 325 138 l 395 138 l 395 69 l 395 0 l 325 0 l 256 0 l 256 69 l 186 69 l 186 138 m 47 416 l 47 416 l 117 416 l 186 416 l 186 347 l 186 277 l 117 277 l 47 277 l 47 347 l 47 416 z "},"|":{"ha":234,"x_min":47,"x_max":186,"o":"m 117 699 l 117 699 l 186 699 l 186 629 l 186 559 l 186 490 l 186 420 l 186 351 l 186 282 l 186 212 l 186 143 l 186 74 l 186 4 l 117 4 l 47 4 l 47 74 l 47 143 l 47 212 l 47 282 l 47 351 l 47 420 l 47 490 l 47 559 l 47 629 l 47 699 l 117 699 z "},"}":{"ha":442,"x_min":47,"x_max":395,"o":"m 325 416 l 325 416 l 395 416 l 395 347 l 395 277 l 325 277 l 256 277 l 256 347 l 256 416 l 325 416 m 256 555 l 256 555 l 256 486 l 256 416 l 186 416 l 117 416 l 117 486 l 117 555 l 47 555 l 47 625 l 47 694 l 117 694 l 186 694 l 186 625 l 256 625 l 256 555 m 117 277 l 117 277 l 186 277 l 256 277 l 256 208 l 256 138 l 186 138 l 186 69 l 186 0 l 117 0 l 47 0 l 47 69 l 47 138 l 117 138 l 117 208 l 117 277 z "},"~":{"ha":650,"x_min":47,"x_max":603,"o":"m 533 486 l 533 486 l 603 486 l 603 416 l 603 347 l 533 347 l 533 277 l 464 277 l 464 208 l 395 208 l 395 277 l 325 277 l 325 347 l 395 347 l 464 347 l 464 416 l 533 416 l 533 486 m 256 416 l 256 416 l 325 416 l 325 347 l 256 347 l 186 347 l 186 277 l 117 277 l 117 208 l 47 208 l 47 277 l 47 347 l 117 347 l 117 416 l 186 416 l 186 486 l 256 486 l 256 416 z "},"":{"ha":650,"x_min":47,"x_max":602,"o":"m 533 629 l 533 629 l 602 629 l 602 559 l 602 490 l 602 420 l 602 351 l 602 282 l 602 212 l 602 143 l 602 74 l 533 74 l 533 143 l 533 212 l 533 282 l 533 351 l 533 420 l 533 490 l 533 559 l 533 629 m 394 74 l 394 74 l 464 74 l 533 74 l 533 4 l 464 4 l 394 4 l 325 4 l 256 4 l 186 4 l 117 4 l 117 74 l 186 74 l 256 74 l 325 74 l 394 74 m 464 282 l 464 282 l 464 212 l 394 212 l 394 282 l 464 282 m 394 420 l 394 420 l 394 490 l 464 490 l 464 420 l 394 420 m 325 559 l 325 559 l 394 559 l 394 490 l 325 490 l 256 490 l 256 559 l 325 559 m 325 143 l 325 143 l 256 143 l 256 212 l 325 212 l 394 212 l 394 143 l 325 143 m 186 420 l 186 420 l 186 490 l 256 490 l 256 420 l 256 351 l 256 282 l 256 212 l 186 212 l 186 282 l 186 351 l 186 420 m 256 629 l 256 629 l 186 629 l 117 629 l 117 699 l 186 699 l 256 699 l 325 699 l 394 699 l 464 699 l 533 699 l 533 629 l 464 629 l 394 629 l 325 629 l 256 629 m 117 212 l 117 212 l 117 143 l 117 74 l 47 74 l 47 143 l 47 212 l 47 282 l 47 351 l 47 420 l 47 490 l 47 559 l 47 629 l 117 629 l 117 559 l 117 490 l 117 420 l 117 351 l 117 282 l 117 212 z "},"":{"ha":581,"x_min":47,"x_max":534,"o":"m 465 629 l 465 629 l 534 629 l 534 559 l 534 490 l 534 420 l 534 351 l 534 282 l 534 212 l 465 212 l 465 282 l 465 351 l 465 420 l 465 490 l 465 559 l 465 629 m 326 212 l 326 212 l 395 212 l 465 212 l 465 143 l 395 143 l 326 143 l 256 143 l 186 143 l 117 143 l 117 212 l 186 212 l 256 212 l 326 212 m 395 282 l 395 282 l 326 282 l 326 351 l 395 351 l 395 282 m 326 420 l 326 420 l 326 490 l 395 490 l 395 420 l 326 420 m 256 490 l 256 490 l 256 420 l 326 420 l 326 351 l 256 351 l 256 282 l 186 282 l 186 351 l 186 420 l 186 490 l 186 559 l 256 559 l 326 559 l 326 490 l 256 490 m 256 629 l 256 629 l 186 629 l 117 629 l 117 699 l 186 699 l 256 699 l 326 699 l 395 699 l 465 699 l 465 629 l 395 629 l 326 629 l 256 629 m 117 351 l 117 351 l 117 282 l 117 212 l 47 212 l 47 282 l 47 351 l 47 420 l 47 490 l 47 559 l 47 629 l 117 629 l 117 559 l 117 490 l 117 420 l 117 351 z "},"":{"ha":650,"x_min":47,"x_max":603,"o":"m 533 764 l 533 764 l 603 764 l 603 694 l 603 625 l 533 625 l 464 625 l 395 625 l 325 625 l 256 625 l 186 625 l 117 625 l 47 625 l 47 694 l 47 764 l 117 764 l 186 764 l 256 764 l 325 764 l 395 764 l 464 764 l 533 764 z "},"":{"ha":650,"x_min":47,"x_max":603,"o":"m 533 486 l 533 486 l 603 486 l 603 416 l 603 347 l 533 347 l 464 347 l 395 347 l 395 277 l 395 208 l 395 138 l 325 138 l 256 138 l 256 208 l 256 277 l 256 347 l 186 347 l 117 347 l 47 347 l 47 416 l 47 486 l 117 486 l 186 486 l 256 486 l 256 555 l 256 625 l 256 694 l 325 694 l 395 694 l 395 625 l 395 555 l 395 486 l 464 486 l 533 486 m 464 69 l 464 69 l 533 69 l 603 69 l 603 0 l 603 -70 l 533 -70 l 464 -70 l 395 -70 l 325 -70 l 256 -70 l 186 -70 l 117 -70 l 47 -70 l 47 0 l 47 69 l 117 69 l 186 69 l 256 69 l 325 69 l 395 69 l 464 69 z "},"":{"ha":303,"x_min":47,"x_max":256,"o":"m 186 555 l 186 555 l 186 486 l 117 486 l 47 486 l 47 555 l 47 625 l 117 625 l 117 694 l 186 694 l 256 694 l 256 625 l 256 555 l 186 555 z "},"":{"ha":650,"x_min":47,"x_max":603,"o":"m 533 694 l 533 694 l 603 694 l 603 625 l 603 555 l 533 555 l 533 486 l 464 486 l 464 416 l 395 416 l 395 486 l 395 555 l 464 555 l 464 625 l 533 625 l 533 694 m 395 208 l 395 208 l 395 277 l 395 347 l 464 347 l 464 277 l 533 277 l 533 208 l 603 208 l 603 138 l 603 69 l 533 69 l 533 138 l 464 138 l 464 208 l 395 208 m 256 416 l 256 416 l 325 416 l 395 416 l 395 347 l 325 347 l 256 347 l 256 416 m 186 277 l 186 277 l 186 347 l 256 347 l 256 277 l 256 208 l 186 208 l 186 138 l 117 138 l 117 69 l 47 69 l 47 138 l 47 208 l 117 208 l 117 277 l 186 277 m 256 555 l 256 555 l 256 486 l 256 416 l 186 416 l 186 486 l 117 486 l 117 555 l 47 555 l 47 625 l 47 694 l 117 694 l 117 625 l 186 625 l 186 555 l 256 555 z "},"":{"ha":650,"x_min":47,"x_max":603,"o":"m 533 416 l 533 416 l 603 416 l 603 347 l 603 277 l 533 277 l 464 277 l 395 277 l 325 277 l 256 277 l 186 277 l 117 277 l 47 277 l 47 347 l 47 416 l 117 416 l 186 416 l 256 416 l 325 416 l 395 416 l 464 416 l 533 416 m 395 486 l 395 486 l 325 486 l 256 486 l 256 555 l 256 625 l 325 625 l 395 625 l 395 555 l 395 486 m 256 208 l 256 208 l 325 208 l 395 208 l 395 138 l 395 69 l 325 69 l 256 69 l 256 138 l 256 208 z "},"":{"ha":234,"x_min":47,"x_max":186,"o":"m 117 555 l 117 555 l 47 555 l 47 625 l 47 694 l 47 833 l 117 833 l 117 694 l 186 694 l 186 625 l 186 555 l 117 555 z "},"":{"ha":234,"x_min":47,"x_max":186,"o":"m 117 833 l 117 833 l 186 833 l 186 764 l 186 694 l 186 555 l 117 555 l 117 694 l 47 694 l 47 764 l 47 833 l 117 833 z "},"":{"ha":234,"x_min":47,"x_max":186,"o":"m 117 138 l 117 138 l 186 138 l 186 69 l 186 0 l 186 -140 l 117 -140 l 117 0 l 47 0 l 47 69 l 47 138 l 117 138 z "},"":{"ha":442,"x_min":47,"x_max":395,"o":"m 117 555 l 117 555 l 47 555 l 47 625 l 47 694 l 47 833 l 117 833 l 117 694 l 186 694 l 186 625 l 186 555 l 117 555 m 325 555 l 325 555 l 256 555 l 256 625 l 256 694 l 256 833 l 325 833 l 325 694 l 395 694 l 395 625 l 395 555 l 325 555 z "},"":{"ha":442,"x_min":47,"x_max":395,"o":"m 325 833 l 325 833 l 395 833 l 395 764 l 395 694 l 395 555 l 325 555 l 325 694 l 256 694 l 256 764 l 256 833 l 325 833 m 117 833 l 117 833 l 186 833 l 186 764 l 186 694 l 186 555 l 117 555 l 117 694 l 47 694 l 47 764 l 47 833 l 117 833 z "},"":{"ha":442,"x_min":47,"x_max":395,"o":"m 325 139 l 325 139 l 395 139 l 395 69 l 395 0 l 395 -139 l 325 -139 l 325 0 l 256 0 l 256 69 l 256 139 l 325 139 m 117 139 l 117 139 l 186 139 l 186 69 l 186 0 l 186 -139 l 117 -139 l 117 0 l 47 0 l 47 69 l 47 139 l 117 139 z "},"":{"ha":650,"x_min":47,"x_max":603,"o":"m 534 694 l 534 694 l 603 694 l 603 625 l 603 555 l 603 486 l 603 416 l 534 416 l 465 416 l 465 347 l 395 347 l 395 277 l 326 277 l 326 208 l 256 208 l 256 138 l 186 138 l 186 69 l 186 0 l 117 0 l 47 0 l 47 69 l 47 138 l 47 208 l 47 277 l 117 277 l 186 277 l 186 347 l 256 347 l 256 416 l 326 416 l 326 486 l 395 486 l 395 555 l 465 555 l 465 625 l 465 694 l 534 694 z "},"":{"ha":650,"x_min":47,"x_max":603,"o":"m 534 559 l 534 559 l 603 559 l 603 490 l 534 490 l 534 559 m 534 699 l 534 699 l 534 629 l 534 559 l 464 559 l 464 490 l 395 490 l 395 559 l 326 559 l 326 629 l 326 699 l 395 699 l 395 629 l 464 629 l 464 699 l 534 699 m 256 490 l 256 490 l 256 559 l 326 559 l 326 490 l 256 490 m 256 699 l 256 699 l 256 629 l 186 629 l 186 559 l 186 490 l 117 490 l 117 559 l 117 629 l 47 629 l 47 699 l 117 699 l 186 699 l 256 699 z "},"":{"ha":650,"x_min":47,"x_max":603,"o":"m 534 416 l 534 416 l 603 416 l 603 347 l 603 277 l 534 277 l 464 277 l 395 277 l 326 277 l 256 277 l 186 277 l 117 277 l 47 277 l 47 347 l 47 416 l 117 416 l 186 416 l 256 416 l 326 416 l 395 416 l 464 416 l 534 416 z "},"":{"ha":650,"x_min":47,"x_max":603,"o":"m 533 694 l 533 694 l 602 694 l 602 625 l 602 555 l 533 555 l 464 555 l 464 486 l 394 486 l 325 486 l 325 416 l 256 416 l 186 416 l 186 347 l 186 277 l 256 277 l 325 277 l 325 208 l 394 208 l 464 208 l 464 138 l 533 138 l 602 138 l 602 69 l 602 0 l 533 0 l 533 69 l 464 69 l 394 69 l 394 138 l 325 138 l 256 138 l 256 208 l 186 208 l 117 208 l 117 277 l 47 277 l 47 347 l 47 416 l 117 416 l 117 486 l 186 486 l 256 486 l 256 555 l 325 555 l 394 555 l 394 625 l 464 625 l 533 625 l 533 694 m 533 -69 l 533 -69 l 603 -69 l 603 -138 l 603 -208 l 533 -208 l 464 -208 l 395 -208 l 325 -208 l 256 -208 l 186 -208 l 117 -208 l 47 -208 l 47 -138 l 47 -69 l 117 -69 l 186 -69 l 256 -69 l 325 -69 l 395 -69 l 464 -69 l 533 -69 z "},"":{"ha":650,"x_min":47,"x_max":603,"o":"m 117 694 l 117 625 l 186 625 l 256 625 l 256 555 l 325 555 l 395 555 l 395 486 l 464 486 l 533 486 l 533 416 l 603 416 l 603 347 l 603 277 l 533 277 l 533 208 l 464 208 l 395 208 l 395 138 l 325 138 l 256 138 l 256 69 l 186 69 l 117 69 l 117 0 l 47 0 l 47 69 l 47 138 l 117 138 l 186 138 l 186 208 l 256 208 l 325 208 l 325 277 l 395 277 l 464 277 l 464 347 l 464 416 l 395 416 l 325 416 l 325 486 l 256 486 l 186 486 l 186 555 l 117 555 l 47 555 l 47 625 l 47 694 l 117 694 l 117 694 m 117 -69 l 186 -69 l 256 -69 l 325 -69 l 394 -69 l 464 -69 l 533 -69 l 602 -69 l 602 -138 l 602 -208 l 533 -208 l 464 -208 l 394 -208 l 325 -208 l 256 -208 l 186 -208 l 117 -208 l 47 -208 l 47 -138 l 47 -69 l 117 -69 l 117 -69 z "},"":{"ha":650,"x_min":47,"x_max":602,"o":"m 533 555 l 533 555 l 602 555 l 602 486 l 602 416 l 533 416 l 464 416 l 394 416 l 394 347 l 325 347 l 325 416 l 256 416 l 186 416 l 117 416 l 47 416 l 47 486 l 47 555 l 117 555 l 186 555 l 256 555 l 325 555 l 394 555 l 394 625 l 464 625 l 464 555 l 533 555 m 533 694 l 533 694 l 533 625 l 464 625 l 464 694 l 533 694 m 256 277 l 256 277 l 256 347 l 325 347 l 325 277 l 394 277 l 464 277 l 533 277 l 602 277 l 602 208 l 602 138 l 533 138 l 464 138 l 394 138 l 325 138 l 256 138 l 256 69 l 186 69 l 186 138 l 117 138 l 47 138 l 47 208 l 47 277 l 117 277 l 186 277 l 256 277 m 117 0 l 117 0 l 117 69 l 186 69 l 186 0 l 117 0 z "}}}
